<?xml version="1.0" standalone="no"?>
<!DOCTYPE svg PUBLIC "-//W3C//DTD SVG 20010904//EN"
 "http://www.w3.org/TR/2001/REC-SVG-20010904/DTD/svg10.dtd">
<svg version="1.0" xmlns="http://www.w3.org/2000/svg"
 width="512.000000pt" height="512.000000pt" viewBox="0 0 512.000000 512.000000"
 preserveAspectRatio="xMidYMid meet">
<metadata>
Created by potrace 1.11, written by Peter Selinger 2001-2013
</metadata>
<g transform="translate(0.000000,512.000000) scale(0.100000,-0.100000)"
fill="#000000" stroke="none">
<path d="M2941 4453 c-27 -26 -69 -165 -552 -1838 -287 -995 -523 -1825 -523
-1843 0 -50 29 -71 145 -103 56 -16 111 -29 121 -29 10 0 31 12 47 28 27 25
69 164 552 1837 287 996 523 1825 523 1843 0 50 -29 71 -145 103 -56 16 -111
29 -121 29 -10 0 -31 -12 -47 -27z"/>
<path d="M1364 3945 c-16 -7 -329 -314 -696 -682 -627 -627 -668 -670 -668
-703 0 -33 41 -76 668 -703 367 -368 676 -673 687 -679 47 -26 75 -13 171 83
51 51 95 102 98 115 3 12 1 35 -5 51 -5 15 -258 276 -562 581 l-552 552 552
553 c304 304 557 565 562 580 6 16 8 39 5 51 -7 29 -182 202 -210 208 -12 3
-34 0 -50 -7z"/>
<path d="M3705 3952 c-27 -5 -202 -179 -209 -208 -3 -12 -1 -35 5 -51 5 -15
258 -276 562 -580 l552 -553 -552 -552 c-304 -305 -557 -566 -562 -581 -6 -16
-8 -39 -5 -51 3 -13 47 -64 98 -115 96 -96 124 -109 171 -83 11 6 319 310 685
676 660 661 665 666 665 706 0 40 -5 45 -670 710 -368 368 -681 673 -695 678
-14 4 -34 6 -45 4z"/>
</g>
</svg>
